Coordinates
version=1
nRows=7
nColumns=63
inDegrees=yes

Units are S.I. units (second, meters, Newtons, ...)
If the header above contains a line with 'inDegrees', this indicates whether rotational values are in degrees (yes) or radians (no).

endheader
time	pelvis_tilt	pelvis_list	pelvis_rotation	pelvis_tx	pelvis_ty	pelvis_tz	hip_flexion_r	hip_adduction_r	hip_rotation_r	knee_angle_r	knee_angle_r_beta	ankle_angle_r	subtalar_angle_r	mtp_angle_r	hip_flexion_l	hip_adduction_l	hip_rotation_l	knee_angle_l	knee_angle_l_beta	ankle_angle_l	subtalar_angle_l	mtp_angle_l	L5_S1_Flex_Ext	L5_S1_Lat_Bending	L5_S1_axial_rotation	L4_L5_Flex_Ext	L4_L5_Lat_Bending	L4_L5_axial_rotation	L3_L4_Flex_Ext	L3_L4_Lat_Bending	L3_L4_axial_rotation	L2_L3_Flex_Ext	L2_L3_Lat_Bending	L2_L3_axial_rotation	L1_L2_Flex_Ext	L1_L2_Lat_Bending	L1_L2_axial_rotation	L1_T12_Flex_Ext	L1_T12_Lat_Bending	L1_T12_axial_rotation	Abs_r3	Abs_r2	Abs_r1	Abs_t1	Abs_t2	neck_flexion	neck_bending	neck_rotation	arm_flex_r	arm_add_r	arm_rot_r	elbow_flex_r	pro_sup_r	wrist_flex_r	wrist_dev_r	arm_flex_l	arm_add_l	arm_rot_l	elbow_flex_l	pro_sup_l	wrist_flex_l	wrist_dev_l
      0.00000000	      2.97982070	     -4.42501465	    100.54466299	      0.11043367	      1.06176296	     -0.13062554	     -8.26997921	      1.89721862	      6.73217213	      6.16519955	      0.10760303	     25.94040634	    -16.90134240	      0.00000000	     -8.21516643	     -1.54366095	      7.27481052	      2.12857564	      0.03715065	     33.49084123	      1.88997646	      0.00000000	      0.10218137	      0.13802878	     -0.19267725	      0.18976103	      0.18357827	     -0.20471958	      0.16787378	      0.33560317	     -0.20471958	      0.11678309	      0.33560317	     -0.16859260	      0.09488562	      0.28146828	     -0.15655027	      0.05838644	      0.21380658	     -0.14450794	      0.72987132	      1.56140914	     -1.07161309	      0.00000000	      0.00000000	     19.74142079	     -0.84107694	     11.87825692	      9.21028948	    -11.05450458	     52.99900540	     45.67816946	     85.90821086	      5.74433960	     10.72682749	      6.52501593	     -4.78446281	     47.31840062	     42.32544213	     80.31793425	      1.22466692	     13.44079998
      0.01785714	      2.71028230	     -4.21893700	     98.72671625	      0.11232033	      1.06166241	     -0.13099296	     -8.15955940	      1.41251094	      9.22217466	      6.68719362	      0.11671355	     26.99768051	    -17.27419827	      0.00000000	     -8.38548501	     -0.94015073	      6.84795554	      2.56845554	      0.04482801	     33.96028160	      0.66432862	      0.00000000	      0.15037555	      0.12437011	      0.23776424	      0.27926243	      0.16541225	      0.25262451	      0.24705198	      0.30239348	      0.25262451	      0.17186421	      0.30239348	      0.20804371	      0.13963873	      0.25361553	      0.19318345	      0.08592459	      0.19264930	      0.17832318	      1.07411749	      1.40689955	      1.32237338	      0.00000000	      0.00000000	     18.91714933	      0.61659526	     13.55257708	      8.09786805	    -10.88362837	     46.91330023	     45.51376194	     81.53606421	      8.06477101	     11.40608216	      7.87242880	     -4.66784023	     50.47182375	     41.38277876	     84.10700310	      1.13727019	     12.08811602
      0.03571429	      2.50553425	     -4.07256214	     97.46276996	      0.11345533	      1.06149564	     -0.13123594	     -8.02836530	      1.04466053	     10.76630111	      7.13933054	      0.12460482	     27.86116946	    -17.34189501	      0.00000000	     -8.47626067	     -0.45900057	      7.20229803	      2.92924001	      0.05112488	     34.15397640	     -1.12799951	      0.00000000	      0.17632691	      0.11645199	      0.51602309	      0.32745671	      0.15488114	      0.54827453	      0.28968748	      0.28314136	      0.54827453	      0.20152403	      0.28314136	      0.45152020	      0.16373717	      0.23746889	      0.41926876	      0.10075320	      0.18038413	      0.38701732	      1.25948550	      1.31732817	      2.86996560	      0.00000000	      0.00000000	     18.62713503	      1.46121349	     14.67352401	      7.79815771	    -11.07993457	     45.52595328	     45.60535763	     60.99911400	      6.96302464	     15.39316575	      9.09322906	     -4.67033613	     53.47183239	     40.78531673	     85.08971119	      0.85523394	     11.06152487
      0.05357143	      2.39734213	     -4.01001824	     96.40492631	      0.11439989	      1.06131389	     -0.13156513	     -7.84510989	      0.79651421	     12.05347705	      7.51930391	      0.13123661	     28.40118394	    -17.42437048	      0.00000000	     -8.47145440	     -0.13333462	      6.48973393	      3.27135550	      0.05709592	     34.54227302	     -1.47973291	      0.00000000	      0.19388933	      0.11585068	      0.70719760	      0.36007188	      0.15408140	      0.75139745	      0.31854079	      0.28167934	      0.75139745	      0.22159612	      0.28167934	      0.61879790	      0.18004564	      0.23624271	      0.57459805	      0.11078837	      0.17945270	      0.53039820	      1.38493213	      1.31052606	      3.93322090	      0.00000000	      0.00000000	     18.51762588	      2.02584943	     15.53692209	      7.67841149	    -11.33424257	     45.29156193	     46.17465312	     43.93875591	      4.35123388	     18.16970292	      9.84609173	     -4.64445937	     55.10842877	     40.46298797	     85.74781633	      0.67092785	     10.11332857
      0.07142857	      2.34442870	     -4.03468406	     95.60414242	      0.11504225	      1.06108852	     -0.13194191	     -7.63753134	      0.63089725	     13.05510841	      7.79415946	      0.13603375	     28.68020250	    -17.55142200	      0.00000000	     -8.35961761	      0.08364049	      5.51121878	      3.61857371	      0.06315603	     34.98068267	     -1.29797131	      0.00000000	      0.20562515	      0.11874357	      0.81471796	      0.38186647	      0.15792895	      0.86563783	      0.33782157	      0.28871312	      0.86563783	      0.23500899	      0.28871312	      0.71287822	      0.19094352	      0.24214189	      0.66195834	      0.11749421	      0.18393379	      0.61103847	      1.46875991	      1.34325101	      4.53121688	      0.00000000	      0.00000000	     18.66690208	      2.30290982	     16.14035685	      7.62781639	    -11.53067776	     45.08320068	     46.82263167	     35.05555774	      2.31356221	     19.45261948	     10.17168248	     -4.63538129	     55.43899651	     40.41489722	     86.10105841	      0.71208387	      9.37297295
      0.08928571	      2.32947928	     -4.05108461	     95.37036124	      0.11502848	      1.06085350	     -0.13255296	     -7.60447020	      0.56226770	     13.35350616	      7.84266101	      0.13688026	     28.75738139	    -17.51072963	      0.00000000	     -8.27910666	      0.17798359	      5.26207297	      3.86999795	      0.06754421	     35.28588100	     -1.50300195	      0.00000000	      0.20858362	      0.11996002	      0.79375344	      0.38736063	      0.15954682	      0.84336303	      0.34268202	      0.29167079	      0.84336303	      0.23839022	      0.29167079	      0.69453426	      0.19369075	      0.24462247	      0.64492467	      0.11918468	      0.18581807	      0.59531508	      1.48989191	      1.35701171	      4.41461851	      0.00000000	      0.00000000	     18.91596446	      2.30740821	     16.25225867	      7.61836715	    -11.62166900	     44.79730289	     47.13747126	     34.82731829	      2.28677579	     19.46268774	     10.27870564	     -4.76557202	     55.19316816	     40.71014012	     86.05795440	      0.73806309	      9.08588024
      0.10714286	      2.34351646	     -4.18180958	     94.95301636	      0.11543898	      1.06039074	     -0.13307204	     -7.40439659	      0.51146785	     13.86724871	      7.95205408	      0.13878953	     28.80789781	    -17.58670341	      0.00000000	     -8.01900589	      0.25468382	      4.89153691	      4.26929384	      0.07451323	     35.61965765	     -1.71569815	      0.00000000	      0.21302755	      0.12517243	      0.81059751	      0.39561346	      0.16647934	      0.86125985	      0.34998296	      0.30434426	      0.86125985	      0.24346919	      0.30434426	      0.70927282	      0.19781738	      0.25525163	      0.65861048	      0.12172394	      0.19389210	      0.60794813	      1.52163448	      1.41597562	      4.50830016	      0.00000000	      0.00000000	     19.54862504	      2.26186505	     16.60864963	      7.47628825	    -11.63609332	     44.23822638	     47.59362254	     34.15677572	      2.06263689	     19.50704989	     10.12859675	     -4.97904955	     54.15624114	     41.31923577	     85.79733724	      0.67681992	      8.21344562
